# MagicaVoxel @ Ephtracy

# group
o 

# material
mtllib Mini_Lightning.mtl
usemtl palette

# normals
vn -1 0 0
vn 1 0 0
vn 0 0 1
vn 0 0 -1
vn 0 -1 0
vn 0 1 0

# texcoords
vt 0.845703 0.5
vt 0.849609 0.5
vt 0.853516 0.5
vt 0.970703 0.5

# verts
v -0.9 0 0.7
v -0.9 0 0.5
v -0.9 0.1 0.7
v -0.9 0.1 0.5
v -0.8 0 0.5
v -0.8 0 0.4
v -0.8 0.1 0.5
v -0.8 0.1 0.4
v -0.7 0 0.9
v -0.7 0 0.7
v -0.7 0 0.4
v -0.7 0 0.3
v -0.7 0.1 0.9
v -0.7 0.1 0.7
v -0.7 0.1 0.4
v -0.7 0.1 0.3
v -0.6 0 0.3
v -0.6 0 0.2
v -0.6 0.1 0.3
v -0.6 0.1 0.2
v -0.5 0 0.9
v -0.5 0 0.8
v -0.5 0.1 0.9
v -0.5 0.1 0.8
v -0.4 0 0.8
v -0.4 0 0.7
v -0.4 0.1 0.8
v -0.4 0.1 0.7
v -0.3 0 0.7
v -0.3 0 0.6
v -0.3 0 0.4
v -0.3 0 0.2
v -0.3 0.1 0.7
v -0.3 0.1 0.6
v -0.3 0.1 0.4
v -0.3 0.1 0.2
v -0.2 0 0.6
v -0.2 0 0.4
v -0.2 0.1 0.6
v -0.2 0.1 0.4
v -0.7 0 0.9
v -0.7 0.1 0.9
v -0.5 0 0.9
v -0.5 0.1 0.9
v -0.5 0 0.8
v -0.5 0.1 0.8
v -0.4 0 0.8
v -0.4 0.1 0.8
v -0.9 0 0.7
v -0.9 0.1 0.7
v -0.7 0 0.7
v -0.7 0.1 0.7
v -0.4 0 0.7
v -0.4 0.1 0.7
v -0.3 0 0.7
v -0.3 0.1 0.7
v -0.3 0 0.6
v -0.3 0.1 0.6
v -0.2 0 0.6
v -0.2 0.1 0.6
v -0.9 0 0.5
v -0.9 0.1 0.5
v -0.8 0 0.5
v -0.8 0.1 0.5
v -0.8 0 0.4
v -0.8 0.1 0.4
v -0.7 0 0.4
v -0.7 0.1 0.4
v -0.3 0 0.4
v -0.3 0.1 0.4
v -0.2 0 0.4
v -0.2 0.1 0.4
v -0.7 0 0.3
v -0.7 0.1 0.3
v -0.6 0 0.3
v -0.6 0.1 0.3
v -0.6 0 0.2
v -0.6 0.1 0.2
v -0.3 0 0.2
v -0.3 0.1 0.2
v -0.7 0 0.9
v -0.5 0 0.9
v -0.6 0 0.8
v -0.5 0 0.8
v -0.4 0 0.8
v -0.9 0 0.7
v -0.7 0 0.7
v -0.6 0 0.7
v -0.5 0 0.7
v -0.4 0 0.7
v -0.3 0 0.7
v -0.8 0 0.6
v -0.7 0 0.6
v -0.5 0 0.6
v -0.4 0 0.6
v -0.3 0 0.6
v -0.2 0 0.6
v -0.9 0 0.5
v -0.8 0 0.5
v -0.7 0 0.5
v -0.6 0 0.5
v -0.4 0 0.5
v -0.3 0 0.5
v -0.8 0 0.4
v -0.7 0 0.4
v -0.6 0 0.4
v -0.5 0 0.4
v -0.4 0 0.4
v -0.3 0 0.4
v -0.2 0 0.4
v -0.7 0 0.3
v -0.6 0 0.3
v -0.5 0 0.3
v -0.4 0 0.3
v -0.6 0 0.2
v -0.3 0 0.2
v -0.7 0.1 0.9
v -0.5 0.1 0.9
v -0.6 0.1 0.8
v -0.5 0.1 0.8
v -0.4 0.1 0.8
v -0.9 0.1 0.7
v -0.7 0.1 0.7
v -0.6 0.1 0.7
v -0.5 0.1 0.7
v -0.4 0.1 0.7
v -0.3 0.1 0.7
v -0.8 0.1 0.6
v -0.7 0.1 0.6
v -0.5 0.1 0.6
v -0.4 0.1 0.6
v -0.3 0.1 0.6
v -0.2 0.1 0.6
v -0.9 0.1 0.5
v -0.8 0.1 0.5
v -0.7 0.1 0.5
v -0.6 0.1 0.5
v -0.4 0.1 0.5
v -0.3 0.1 0.5
v -0.8 0.1 0.4
v -0.7 0.1 0.4
v -0.6 0.1 0.4
v -0.5 0.1 0.4
v -0.4 0.1 0.4
v -0.3 0.1 0.4
v -0.2 0.1 0.4
v -0.7 0.1 0.3
v -0.6 0.1 0.3
v -0.5 0.1 0.3
v -0.4 0.1 0.3
v -0.6 0.1 0.2
v -0.3 0.1 0.2

# faces
f 3/4/1 2/4/1 1/4/1
f 4/4/1 2/4/1 3/4/1
f 7/4/1 6/4/1 5/4/1
f 8/4/1 6/4/1 7/4/1
f 13/4/1 10/4/1 9/4/1
f 14/4/1 10/4/1 13/4/1
f 15/4/1 12/4/1 11/4/1
f 16/4/1 12/4/1 15/4/1
f 19/4/1 18/4/1 17/4/1
f 20/4/1 18/4/1 19/4/1
f 21/4/2 22/4/2 23/4/2
f 23/4/2 22/4/2 24/4/2
f 25/4/2 26/4/2 27/4/2
f 27/4/2 26/4/2 28/4/2
f 29/4/2 30/4/2 33/4/2
f 33/4/2 30/4/2 34/4/2
f 31/4/2 32/4/2 35/4/2
f 35/4/2 32/4/2 36/4/2
f 37/4/2 38/4/2 39/4/2
f 39/4/2 38/4/2 40/4/2
f 43/4/3 42/4/3 41/4/3
f 44/4/3 42/4/3 43/4/3
f 47/4/3 46/4/3 45/4/3
f 48/4/3 46/4/3 47/4/3
f 51/4/3 50/4/3 49/4/3
f 52/4/3 50/4/3 51/4/3
f 55/4/3 54/4/3 53/4/3
f 56/4/3 54/4/3 55/4/3
f 59/4/3 58/4/3 57/4/3
f 60/4/3 58/4/3 59/4/3
f 61/4/4 62/4/4 63/4/4
f 63/4/4 62/4/4 64/4/4
f 65/4/4 66/4/4 67/4/4
f 67/4/4 66/4/4 68/4/4
f 69/4/4 70/4/4 71/4/4
f 71/4/4 70/4/4 72/4/4
f 73/4/4 74/4/4 75/4/4
f 75/4/4 74/4/4 76/4/4
f 77/4/4 78/4/4 79/4/4
f 79/4/4 78/4/4 80/4/4
f 83/4/5 82/4/5 81/4/5
f 84/4/5 82/4/5 83/4/5
f 87/4/5 83/4/5 81/4/5
f 88/1/5 84/1/5 83/1/5
f 88/4/5 83/4/5 87/4/5
f 89/4/5 85/4/5 84/4/5
f 89/1/5 84/1/5 88/1/5
f 90/4/5 85/4/5 89/4/5
f 92/4/5 88/4/5 87/4/5
f 92/4/5 87/4/5 86/4/5
f 92/4/5 89/4/5 88/4/5
f 93/4/5 89/4/5 92/4/5
f 94/1/5 90/1/5 89/1/5
f 94/4/5 89/4/5 93/4/5
f 95/4/5 91/4/5 90/4/5
f 95/1/5 90/1/5 94/1/5
f 96/4/5 91/4/5 95/4/5
f 98/4/5 92/4/5 86/4/5
f 99/3/5 93/3/5 92/3/5
f 99/4/5 92/4/5 98/4/5
f 100/2/5 94/2/5 93/2/5
f 100/3/5 93/3/5 99/3/5
f 100/2/5 95/2/5 94/2/5
f 101/2/5 95/2/5 100/2/5
f 102/1/5 96/1/5 95/1/5
f 102/2/5 95/2/5 101/2/5
f 103/4/5 97/4/5 96/4/5
f 103/1/5 96/1/5 102/1/5
f 104/4/5 100/4/5 99/4/5
f 105/3/5 101/3/5 100/3/5
f 105/4/5 100/4/5 104/4/5
f 106/4/5 102/4/5 101/4/5
f 106/3/5 101/3/5 105/3/5
f 106/4/5 103/4/5 102/4/5
f 107/4/5 103/4/5 106/4/5
f 108/4/5 103/4/5 107/4/5
f 109/4/5 97/4/5 103/4/5
f 109/4/5 103/4/5 108/4/5
f 110/4/5 97/4/5 109/4/5
f 111/4/5 106/4/5 105/4/5
f 112/3/5 107/3/5 106/3/5
f 112/4/5 106/4/5 111/4/5
f 113/2/5 108/2/5 107/2/5
f 113/3/5 107/3/5 112/3/5
f 114/4/5 109/4/5 108/4/5
f 114/2/5 108/2/5 113/2/5
f 115/4/5 113/4/5 112/4/5
f 115/4/5 114/4/5 113/4/5
f 116/4/5 109/4/5 114/4/5
f 116/4/5 114/4/5 115/4/5
f 117/4/6 118/4/6 119/4/6
f 119/4/6 118/4/6 120/4/6
f 117/4/6 119/4/6 123/4/6
f 119/1/6 120/1/6 124/1/6
f 123/4/6 119/4/6 124/4/6
f 120/4/6 121/4/6 125/4/6
f 124/1/6 120/1/6 125/1/6
f 125/4/6 121/4/6 126/4/6
f 123/4/6 124/4/6 128/4/6
f 122/4/6 123/4/6 128/4/6
f 124/4/6 125/4/6 128/4/6
f 128/4/6 125/4/6 129/4/6
f 125/1/6 126/1/6 130/1/6
f 129/4/6 125/4/6 130/4/6
f 126/4/6 127/4/6 131/4/6
f 130/1/6 126/1/6 131/1/6
f 131/4/6 127/4/6 132/4/6
f 122/4/6 128/4/6 134/4/6
f 128/3/6 129/3/6 135/3/6
f 134/4/6 128/4/6 135/4/6
f 129/2/6 130/2/6 136/2/6
f 135/3/6 129/3/6 136/3/6
f 130/2/6 131/2/6 136/2/6
f 136/2/6 131/2/6 137/2/6
f 131/1/6 132/1/6 138/1/6
f 137/2/6 131/2/6 138/2/6
f 132/4/6 133/4/6 139/4/6
f 138/1/6 132/1/6 139/1/6
f 135/4/6 136/4/6 140/4/6
f 136/3/6 137/3/6 141/3/6
f 140/4/6 136/4/6 141/4/6
f 137/4/6 138/4/6 142/4/6
f 141/3/6 137/3/6 142/3/6
f 138/4/6 139/4/6 142/4/6
f 142/4/6 139/4/6 143/4/6
f 143/4/6 139/4/6 144/4/6
f 139/4/6 133/4/6 145/4/6
f 144/4/6 139/4/6 145/4/6
f 145/4/6 133/4/6 146/4/6
f 141/4/6 142/4/6 147/4/6
f 142/3/6 143/3/6 148/3/6
f 147/4/6 142/4/6 148/4/6
f 143/2/6 144/2/6 149/2/6
f 148/3/6 143/3/6 149/3/6
f 144/4/6 145/4/6 150/4/6
f 149/2/6 144/2/6 150/2/6
f 148/4/6 149/4/6 151/4/6
f 149/4/6 150/4/6 151/4/6
f 150/4/6 145/4/6 152/4/6
f 151/4/6 150/4/6 152/4/6
