# MagicaVoxel @ Ephtracy

# group
o 

# material
mtllib Mini_rock.mtl
usemtl palette

# normals
vn -1 0 0
vn 1 0 0
vn 0 0 1
vn 0 0 -1
vn 0 -1 0
vn 0 1 0

# texcoords
vt 0.814453 0.5
vt 0.818359 0.5
vt 0.822266 0.5
vt 0.970703 0.5

# verts
v -0.8 0 0.8
v -0.8 0 0.5
v -0.8 0.1 0.8
v -0.8 0.1 0.5
v -0.7 0 0.9
v -0.7 0 0.8
v -0.7 0 0.5
v -0.7 0 0.4
v -0.7 0.1 0.9
v -0.7 0.1 0.8
v -0.7 0.1 0.5
v -0.7 0.1 0.4
v -0.6 0 0.4
v -0.6 0 0.3
v -0.6 0.1 0.4
v -0.6 0.1 0.3
v -0.2 0 0.9
v -0.2 0 0.8
v -0.2 0 0.4
v -0.2 0 0.3
v -0.2 0.1 0.9
v -0.2 0.1 0.8
v -0.2 0.1 0.4
v -0.2 0.1 0.3
v -0.1 0 0.8
v -0.1 0 0.7
v -0.1 0 0.5
v -0.1 0 0.4
v -0.1 0.1 0.8
v -0.1 0.1 0.7
v -0.1 0.1 0.5
v -0.1 0.1 0.4
v 0 0 0.7
v 0 0 0.5
v 0 0.1 0.7
v 0 0.1 0.5
v -0.7 0 0.9
v -0.7 0.1 0.9
v -0.2 0 0.9
v -0.2 0.1 0.9
v -0.8 0 0.8
v -0.8 0.1 0.8
v -0.7 0 0.8
v -0.7 0.1 0.8
v -0.2 0 0.8
v -0.2 0.1 0.8
v -0.1 0 0.8
v -0.1 0.1 0.8
v -0.1 0 0.7
v -0.1 0.1 0.7
v 0 0 0.7
v 0 0.1 0.7
v -0.8 0 0.5
v -0.8 0.1 0.5
v -0.7 0 0.5
v -0.7 0.1 0.5
v -0.1 0 0.5
v -0.1 0.1 0.5
v 0 0 0.5
v 0 0.1 0.5
v -0.7 0 0.4
v -0.7 0.1 0.4
v -0.6 0 0.4
v -0.6 0.1 0.4
v -0.2 0 0.4
v -0.2 0.1 0.4
v -0.1 0 0.4
v -0.1 0.1 0.4
v -0.6 0 0.3
v -0.6 0.1 0.3
v -0.2 0 0.3
v -0.2 0.1 0.3
v -0.7 0 0.9
v -0.2 0 0.9
v -0.8 0 0.8
v -0.7 0 0.8
v -0.6 0 0.8
v -0.3 0 0.8
v -0.2 0 0.8
v -0.1 0 0.8
v -0.7 0 0.7
v -0.6 0 0.7
v -0.5 0 0.7
v -0.3 0 0.7
v -0.2 0 0.7
v -0.1 0 0.7
v 0 0 0.7
v -0.7 0 0.6
v -0.6 0 0.6
v -0.5 0 0.6
v -0.4 0 0.6
v -0.2 0 0.6
v -0.1 0 0.6
v -0.8 0 0.5
v -0.7 0 0.5
v -0.6 0 0.5
v -0.5 0 0.5
v -0.4 0 0.5
v -0.3 0 0.5
v -0.2 0 0.5
v -0.1 0 0.5
v 0 0 0.5
v -0.7 0 0.4
v -0.6 0 0.4
v -0.5 0 0.4
v -0.2 0 0.4
v -0.1 0 0.4
v -0.6 0 0.3
v -0.2 0 0.3
v -0.7 0.1 0.9
v -0.2 0.1 0.9
v -0.8 0.1 0.8
v -0.7 0.1 0.8
v -0.6 0.1 0.8
v -0.3 0.1 0.8
v -0.2 0.1 0.8
v -0.1 0.1 0.8
v -0.7 0.1 0.7
v -0.6 0.1 0.7
v -0.5 0.1 0.7
v -0.3 0.1 0.7
v -0.2 0.1 0.7
v -0.1 0.1 0.7
v 0 0.1 0.7
v -0.7 0.1 0.6
v -0.6 0.1 0.6
v -0.5 0.1 0.6
v -0.4 0.1 0.6
v -0.2 0.1 0.6
v -0.1 0.1 0.6
v -0.8 0.1 0.5
v -0.7 0.1 0.5
v -0.6 0.1 0.5
v -0.5 0.1 0.5
v -0.4 0.1 0.5
v -0.3 0.1 0.5
v -0.2 0.1 0.5
v -0.1 0.1 0.5
v 0 0.1 0.5
v -0.7 0.1 0.4
v -0.6 0.1 0.4
v -0.5 0.1 0.4
v -0.2 0.1 0.4
v -0.1 0.1 0.4
v -0.6 0.1 0.3
v -0.2 0.1 0.3

# faces
f 3/4/1 2/4/1 1/4/1
f 4/4/1 2/4/1 3/4/1
f 9/4/1 6/4/1 5/4/1
f 10/4/1 6/4/1 9/4/1
f 11/4/1 8/4/1 7/4/1
f 12/4/1 8/4/1 11/4/1
f 15/4/1 14/4/1 13/4/1
f 16/4/1 14/4/1 15/4/1
f 17/4/2 18/4/2 21/4/2
f 21/4/2 18/4/2 22/4/2
f 19/4/2 20/4/2 23/4/2
f 23/4/2 20/4/2 24/4/2
f 25/4/2 26/4/2 29/4/2
f 29/4/2 26/4/2 30/4/2
f 27/4/2 28/4/2 31/4/2
f 31/4/2 28/4/2 32/4/2
f 33/4/2 34/4/2 35/4/2
f 35/4/2 34/4/2 36/4/2
f 39/4/3 38/4/3 37/4/3
f 40/4/3 38/4/3 39/4/3
f 43/4/3 42/4/3 41/4/3
f 44/4/3 42/4/3 43/4/3
f 47/4/3 46/4/3 45/4/3
f 48/4/3 46/4/3 47/4/3
f 51/4/3 50/4/3 49/4/3
f 52/4/3 50/4/3 51/4/3
f 53/4/4 54/4/4 55/4/4
f 55/4/4 54/4/4 56/4/4
f 57/4/4 58/4/4 59/4/4
f 59/4/4 58/4/4 60/4/4
f 61/4/4 62/4/4 63/4/4
f 63/4/4 62/4/4 64/4/4
f 65/4/4 66/4/4 67/4/4
f 67/4/4 66/4/4 68/4/4
f 69/4/4 70/4/4 71/4/4
f 71/4/4 70/4/4 72/4/4
f 76/4/5 74/4/5 73/4/5
f 77/4/5 74/4/5 76/4/5
f 78/4/5 74/4/5 77/4/5
f 79/4/5 74/4/5 78/4/5
f 81/4/5 76/4/5 75/4/5
f 81/1/5 77/1/5 76/1/5
f 82/2/5 78/2/5 77/2/5
f 82/1/5 77/1/5 81/1/5
f 83/2/5 78/2/5 82/2/5
f 84/1/5 79/1/5 78/1/5
f 84/2/5 78/2/5 83/2/5
f 85/4/5 80/4/5 79/4/5
f 85/1/5 79/1/5 84/1/5
f 86/4/5 80/4/5 85/4/5
f 88/2/5 83/2/5 82/2/5
f 88/4/5 81/4/5 75/4/5
f 88/2/5 82/2/5 81/2/5
f 89/2/5 83/2/5 88/2/5
f 90/3/5 84/3/5 83/3/5
f 90/2/5 83/2/5 89/2/5
f 91/3/5 84/3/5 90/3/5
f 92/2/5 86/2/5 85/2/5
f 92/2/5 85/2/5 84/2/5
f 93/4/5 87/4/5 86/4/5
f 93/2/5 86/2/5 92/2/5
f 94/4/5 88/4/5 75/4/5
f 95/1/5 89/1/5 88/1/5
f 95/4/5 88/4/5 94/4/5
f 96/2/5 91/2/5 90/2/5
f 96/1/5 89/1/5 95/1/5
f 96/2/5 90/2/5 89/2/5
f 97/2/5 91/2/5 96/2/5
f 98/3/5 84/3/5 91/3/5
f 98/2/5 91/2/5 97/2/5
f 99/2/5 92/2/5 84/2/5
f 99/3/5 84/3/5 98/3/5
f 100/1/5 93/1/5 92/1/5
f 100/2/5 92/2/5 99/2/5
f 101/4/5 87/4/5 93/4/5
f 101/1/5 93/1/5 100/1/5
f 102/4/5 87/4/5 101/4/5
f 103/4/5 96/4/5 95/4/5
f 104/1/5 97/1/5 96/1/5
f 104/4/5 96/4/5 103/4/5
f 105/2/5 98/2/5 97/2/5
f 105/1/5 97/1/5 104/1/5
f 105/2/5 100/2/5 99/2/5
f 105/2/5 99/2/5 98/2/5
f 106/4/5 101/4/5 100/4/5
f 106/2/5 100/2/5 105/2/5
f 107/4/5 101/4/5 106/4/5
f 108/4/5 105/4/5 104/4/5
f 108/4/5 106/4/5 105/4/5
f 109/4/5 106/4/5 108/4/5
f 110/4/6 111/4/6 113/4/6
f 113/4/6 111/4/6 114/4/6
f 114/4/6 111/4/6 115/4/6
f 115/4/6 111/4/6 116/4/6
f 112/4/6 113/4/6 118/4/6
f 113/1/6 114/1/6 118/1/6
f 114/2/6 115/2/6 119/2/6
f 118/1/6 114/1/6 119/1/6
f 119/2/6 115/2/6 120/2/6
f 115/1/6 116/1/6 121/1/6
f 120/2/6 115/2/6 121/2/6
f 116/4/6 117/4/6 122/4/6
f 121/1/6 116/1/6 122/1/6
f 122/4/6 117/4/6 123/4/6
f 119/2/6 120/2/6 125/2/6
f 112/4/6 118/4/6 125/4/6
f 118/2/6 119/2/6 125/2/6
f 125/2/6 120/2/6 126/2/6
f 120/3/6 121/3/6 127/3/6
f 126/2/6 120/2/6 127/2/6
f 127/3/6 121/3/6 128/3/6
f 122/2/6 123/2/6 129/2/6
f 121/2/6 122/2/6 129/2/6
f 123/4/6 124/4/6 130/4/6
f 129/2/6 123/2/6 130/2/6
f 112/4/6 125/4/6 131/4/6
f 125/1/6 126/1/6 132/1/6
f 131/4/6 125/4/6 132/4/6
f 127/2/6 128/2/6 133/2/6
f 132/1/6 126/1/6 133/1/6
f 126/2/6 127/2/6 133/2/6
f 133/2/6 128/2/6 134/2/6
f 128/3/6 121/3/6 135/3/6
f 134/2/6 128/2/6 135/2/6
f 121/2/6 129/2/6 136/2/6
f 135/3/6 121/3/6 136/3/6
f 129/1/6 130/1/6 137/1/6
f 136/2/6 129/2/6 137/2/6
f 130/4/6 124/4/6 138/4/6
f 137/1/6 130/1/6 138/1/6
f 138/4/6 124/4/6 139/4/6
f 132/4/6 133/4/6 140/4/6
f 133/1/6 134/1/6 141/1/6
f 140/4/6 133/4/6 141/4/6
f 134/2/6 135/2/6 142/2/6
f 141/1/6 134/1/6 142/1/6
f 136/2/6 137/2/6 142/2/6
f 135/2/6 136/2/6 142/2/6
f 137/4/6 138/4/6 143/4/6
f 142/2/6 137/2/6 143/2/6
f 143/4/6 138/4/6 144/4/6
f 141/4/6 142/4/6 145/4/6
f 142/4/6 143/4/6 145/4/6
f 145/4/6 143/4/6 146/4/6
