# MagicaVoxel @ Ephtracy

# group
o 

# material
mtllib Mini_Plant.mtl
usemtl palette

# normals
vn -1 0 0
vn 1 0 0
vn 0 0 1
vn 0 0 -1
vn 0 -1 0
vn 0 1 0

# texcoords
vt 0.876953 0.5
vt 0.880859 0.5
vt 0.884766 0.5
vt 0.888672 0.5
vt 0.970703 0.5

# verts
v -1.1 0 1.3
v -1.1 0 1.2
v -1.1 0.1 1.3
v -1.1 0.1 1.2
v -1 0 1.2
v -1 0 0.8
v -1 0.1 1.2
v -1 0.1 0.8
v -0.9 0 1.3
v -0.9 0 1.2
v -0.9 0 0.8
v -0.9 0 0.7
v -0.9 0.1 1.3
v -0.9 0.1 1.2
v -0.9 0.1 0.8
v -0.9 0.1 0.7
v -0.8 0 0.7
v -0.8 0 0.6
v -0.8 0.1 0.7
v -0.8 0.1 0.6
v -0.4 0 0.6
v -0.4 0 0.5
v -0.4 0.1 0.6
v -0.4 0.1 0.5
v -1 0 1.3
v -1 0 1.2
v -1 0.1 1.3
v -1 0.1 1.2
v -0.6 0 1.3
v -0.6 0 1.2
v -0.6 0.1 1.3
v -0.6 0.1 1.2
v -0.5 0 1.2
v -0.5 0 1.1
v -0.5 0.1 1.2
v -0.5 0.1 1.1
v -0.4 0 1.1
v -0.4 0 0.9
v -0.4 0.1 1.1
v -0.4 0.1 0.9
v -0.3 0 0.9
v -0.3 0 0.7
v -0.3 0 0.6
v -0.3 0.1 0.9
v -0.3 0.1 0.7
v -0.3 0.1 0.6
v -0.2 0 0.6
v -0.2 0 0.5
v -0.2 0.1 0.6
v -0.2 0.1 0.5
v -1.1 0 1.3
v -1.1 0.1 1.3
v -1 0 1.3
v -1 0.1 1.3
v -0.9 0 1.3
v -0.9 0.1 1.3
v -0.6 0 1.3
v -0.6 0.1 1.3
v -1 0 1.2
v -1 0.1 1.2
v -0.9 0 1.2
v -0.9 0.1 1.2
v -0.6 0 1.2
v -0.6 0.1 1.2
v -0.5 0 1.2
v -0.5 0.1 1.2
v -0.5 0 1.1
v -0.5 0.1 1.1
v -0.4 0 1.1
v -0.4 0.1 1.1
v -0.4 0 0.9
v -0.4 0.1 0.9
v -0.3 0 0.9
v -0.3 0.1 0.9
v -0.3 0 0.6
v -0.3 0.1 0.6
v -0.2 0 0.6
v -0.2 0.1 0.6
v -1.1 0 1.2
v -1.1 0.1 1.2
v -1 0 1.2
v -1 0.1 1.2
v -1 0 0.8
v -1 0.1 0.8
v -0.9 0 0.8
v -0.9 0.1 0.8
v -0.9 0 0.7
v -0.9 0.1 0.7
v -0.8 0 0.7
v -0.8 0.1 0.7
v -0.8 0 0.6
v -0.8 0.1 0.6
v -0.4 0 0.6
v -0.4 0.1 0.6
v -0.4 0 0.5
v -0.4 0.1 0.5
v -0.2 0 0.5
v -0.2 0.1 0.5
v -1.1 0 1.3
v -1 0 1.3
v -0.9 0 1.3
v -0.6 0 1.3
v -1.1 0 1.2
v -1 0 1.2
v -0.9 0 1.2
v -0.8 0 1.2
v -0.6 0 1.2
v -0.5 0 1.2
v -0.9 0 1.1
v -0.8 0 1.1
v -0.6 0 1.1
v -0.5 0 1.1
v -0.4 0 1.1
v -0.9 0 1
v -0.8 0 1
v -0.7 0 1
v -0.6 0 1
v -0.5 0 1
v -0.9 0 0.9
v -0.8 0 0.9
v -0.7 0 0.9
v -0.6 0 0.9
v -0.5 0 0.9
v -0.4 0 0.9
v -0.3 0 0.9
v -1 0 0.8
v -0.9 0 0.8
v -0.8 0 0.8
v -0.7 0 0.8
v -0.6 0 0.8
v -0.5 0 0.8
v -0.4 0 0.8
v -0.9 0 0.7
v -0.8 0 0.7
v -0.7 0 0.7
v -0.6 0 0.7
v -0.5 0 0.7
v -0.4 0 0.7
v -0.3 0 0.7
v -0.8 0 0.6
v -0.4 0 0.6
v -0.3 0 0.6
v -0.2 0 0.6
v -0.4 0 0.5
v -0.2 0 0.5
v -1.1 0.1 1.3
v -1 0.1 1.3
v -0.9 0.1 1.3
v -0.6 0.1 1.3
v -1.1 0.1 1.2
v -1 0.1 1.2
v -0.9 0.1 1.2
v -0.8 0.1 1.2
v -0.6 0.1 1.2
v -0.5 0.1 1.2
v -0.9 0.1 1.1
v -0.8 0.1 1.1
v -0.6 0.1 1.1
v -0.5 0.1 1.1
v -0.4 0.1 1.1
v -0.9 0.1 1
v -0.8 0.1 1
v -0.7 0.1 1
v -0.6 0.1 1
v -0.5 0.1 1
v -0.9 0.1 0.9
v -0.8 0.1 0.9
v -0.7 0.1 0.9
v -0.6 0.1 0.9
v -0.5 0.1 0.9
v -0.4 0.1 0.9
v -0.3 0.1 0.9
v -1 0.1 0.8
v -0.9 0.1 0.8
v -0.8 0.1 0.8
v -0.7 0.1 0.8
v -0.6 0.1 0.8
v -0.5 0.1 0.8
v -0.4 0.1 0.8
v -0.9 0.1 0.7
v -0.8 0.1 0.7
v -0.7 0.1 0.7
v -0.6 0.1 0.7
v -0.5 0.1 0.7
v -0.4 0.1 0.7
v -0.3 0.1 0.7
v -0.8 0.1 0.6
v -0.4 0.1 0.6
v -0.3 0.1 0.6
v -0.2 0.1 0.6
v -0.4 0.1 0.5
v -0.2 0.1 0.5

# faces
f 3/5/1 2/5/1 1/5/1
f 4/5/1 2/5/1 3/5/1
f 7/5/1 6/5/1 5/5/1
f 8/5/1 6/5/1 7/5/1
f 13/5/1 10/5/1 9/5/1
f 14/5/1 10/5/1 13/5/1
f 15/5/1 12/5/1 11/5/1
f 16/5/1 12/5/1 15/5/1
f 19/5/1 18/5/1 17/5/1
f 20/5/1 18/5/1 19/5/1
f 23/5/1 22/5/1 21/5/1
f 24/5/1 22/5/1 23/5/1
f 25/5/2 26/5/2 27/5/2
f 27/5/2 26/5/2 28/5/2
f 29/5/2 30/5/2 31/5/2
f 31/5/2 30/5/2 32/5/2
f 33/5/2 34/5/2 35/5/2
f 35/5/2 34/5/2 36/5/2
f 37/5/2 38/5/2 39/5/2
f 39/5/2 38/5/2 40/5/2
f 41/5/2 42/5/2 44/5/2
f 42/1/2 43/1/2 45/1/2
f 44/5/2 42/5/2 45/5/2
f 45/1/2 43/1/2 46/1/2
f 47/5/2 48/5/2 49/5/2
f 49/5/2 48/5/2 50/5/2
f 53/5/3 52/5/3 51/5/3
f 54/5/3 52/5/3 53/5/3
f 57/5/3 56/5/3 55/5/3
f 58/5/3 56/5/3 57/5/3
f 61/5/3 60/5/3 59/5/3
f 62/5/3 60/5/3 61/5/3
f 65/5/3 64/5/3 63/5/3
f 66/5/3 64/5/3 65/5/3
f 69/5/3 68/5/3 67/5/3
f 70/5/3 68/5/3 69/5/3
f 73/5/3 72/5/3 71/5/3
f 74/5/3 72/5/3 73/5/3
f 77/5/3 76/5/3 75/5/3
f 78/5/3 76/5/3 77/5/3
f 79/5/4 80/5/4 81/5/4
f 81/5/4 80/5/4 82/5/4
f 83/5/4 84/5/4 85/5/4
f 85/5/4 84/5/4 86/5/4
f 87/5/4 88/5/4 89/5/4
f 89/5/4 88/5/4 90/5/4
f 91/5/4 92/5/4 93/5/4
f 93/5/4 92/5/4 94/5/4
f 95/5/4 96/5/4 97/5/4
f 97/5/4 96/5/4 98/5/4
f 103/5/5 100/5/5 99/5/5
f 104/5/5 100/5/5 103/5/5
f 105/5/5 102/5/5 101/5/5
f 106/5/5 102/5/5 105/5/5
f 107/5/5 102/5/5 106/5/5
f 109/5/5 105/5/5 104/5/5
f 109/3/5 106/3/5 105/3/5
f 110/2/5 107/2/5 106/2/5
f 110/3/5 106/3/5 109/3/5
f 111/5/5 108/5/5 107/5/5
f 111/2/5 107/2/5 110/2/5
f 112/5/5 108/5/5 111/5/5
f 114/1/5 110/1/5 109/1/5
f 114/5/5 109/5/5 104/5/5
f 115/3/5 111/3/5 110/3/5
f 115/1/5 110/1/5 114/1/5
f 116/3/5 111/3/5 115/3/5
f 117/1/5 112/1/5 111/1/5
f 117/3/5 111/3/5 116/3/5
f 118/5/5 113/5/5 112/5/5
f 118/1/5 112/1/5 117/1/5
f 119/5/5 114/5/5 104/5/5
f 119/4/5 115/4/5 114/4/5
f 120/1/5 116/1/5 115/1/5
f 120/4/5 115/4/5 119/4/5
f 121/3/5 117/3/5 116/3/5
f 121/1/5 116/1/5 120/1/5
f 122/2/5 118/2/5 117/2/5
f 122/3/5 117/3/5 121/3/5
f 123/5/5 113/5/5 118/5/5
f 123/2/5 118/2/5 122/2/5
f 124/5/5 113/5/5 123/5/5
f 126/5/5 119/5/5 104/5/5
f 127/3/5 120/3/5 119/3/5
f 127/5/5 119/5/5 126/5/5
f 127/3/5 121/3/5 120/3/5
f 128/3/5 121/3/5 127/3/5
f 129/1/5 122/1/5 121/1/5
f 129/3/5 121/3/5 128/3/5
f 129/1/5 123/1/5 122/1/5
f 130/1/5 123/1/5 129/1/5
f 131/3/5 124/3/5 123/3/5
f 131/1/5 123/1/5 130/1/5
f 132/5/5 125/5/5 124/5/5
f 132/3/5 124/3/5 131/3/5
f 133/5/5 128/5/5 127/5/5
f 134/4/5 129/4/5 128/4/5
f 134/5/5 128/5/5 133/5/5
f 135/3/5 130/3/5 129/3/5
f 135/4/5 129/4/5 134/4/5
f 136/4/5 131/4/5 130/4/5
f 136/3/5 130/3/5 135/3/5
f 137/1/5 132/1/5 131/1/5
f 137/4/5 131/4/5 136/4/5
f 138/5/5 125/5/5 132/5/5
f 138/1/5 132/1/5 137/1/5
f 139/5/5 125/5/5 138/5/5
f 140/5/5 135/5/5 134/5/5
f 140/5/5 137/5/5 136/5/5
f 140/5/5 138/5/5 137/5/5
f 140/5/5 136/5/5 135/5/5
f 141/1/5 139/1/5 138/1/5
f 141/5/5 138/5/5 140/5/5
f 142/1/5 139/1/5 141/1/5
f 144/5/5 142/5/5 141/5/5
f 144/5/5 143/5/5 142/5/5
f 145/5/5 143/5/5 144/5/5
f 146/5/6 147/5/6 150/5/6
f 150/5/6 147/5/6 151/5/6
f 148/5/6 149/5/6 152/5/6
f 152/5/6 149/5/6 153/5/6
f 153/5/6 149/5/6 154/5/6
f 151/5/6 152/5/6 156/5/6
f 152/3/6 153/3/6 156/3/6
f 153/2/6 154/2/6 157/2/6
f 156/3/6 153/3/6 157/3/6
f 154/5/6 155/5/6 158/5/6
f 157/2/6 154/2/6 158/2/6
f 158/5/6 155/5/6 159/5/6
f 156/1/6 157/1/6 161/1/6
f 151/5/6 156/5/6 161/5/6
f 157/3/6 158/3/6 162/3/6
f 161/1/6 157/1/6 162/1/6
f 162/3/6 158/3/6 163/3/6
f 158/1/6 159/1/6 164/1/6
f 163/3/6 158/3/6 164/3/6
f 159/5/6 160/5/6 165/5/6
f 164/1/6 159/1/6 165/1/6
f 151/5/6 161/5/6 166/5/6
f 161/4/6 162/4/6 166/4/6
f 162/1/6 163/1/6 167/1/6
f 166/4/6 162/4/6 167/4/6
f 163/3/6 164/3/6 168/3/6
f 167/1/6 163/1/6 168/1/6
f 164/2/6 165/2/6 169/2/6
f 168/3/6 164/3/6 169/3/6
f 165/5/6 160/5/6 170/5/6
f 169/2/6 165/2/6 170/2/6
f 170/5/6 160/5/6 171/5/6
f 151/5/6 166/5/6 173/5/6
f 166/3/6 167/3/6 174/3/6
f 173/5/6 166/5/6 174/5/6
f 167/3/6 168/3/6 174/3/6
f 174/3/6 168/3/6 175/3/6
f 168/1/6 169/1/6 176/1/6
f 175/3/6 168/3/6 176/3/6
f 169/1/6 170/1/6 176/1/6
f 176/1/6 170/1/6 177/1/6
f 170/3/6 171/3/6 178/3/6
f 177/1/6 170/1/6 178/1/6
f 171/5/6 172/5/6 179/5/6
f 178/3/6 171/3/6 179/3/6
f 174/5/6 175/5/6 180/5/6
f 175/4/6 176/4/6 181/4/6
f 180/5/6 175/5/6 181/5/6
f 176/3/6 177/3/6 182/3/6
f 181/4/6 176/4/6 182/4/6
f 177/4/6 178/4/6 183/4/6
f 182/3/6 177/3/6 183/3/6
f 178/1/6 179/1/6 184/1/6
f 183/4/6 178/4/6 184/4/6
f 179/5/6 172/5/6 185/5/6
f 184/1/6 179/1/6 185/1/6
f 185/5/6 172/5/6 186/5/6
f 181/5/6 182/5/6 187/5/6
f 183/5/6 184/5/6 187/5/6
f 184/5/6 185/5/6 187/5/6
f 182/5/6 183/5/6 187/5/6
f 185/1/6 186/1/6 188/1/6
f 187/5/6 185/5/6 188/5/6
f 188/1/6 186/1/6 189/1/6
f 188/5/6 189/5/6 191/5/6
f 189/5/6 190/5/6 191/5/6
f 191/5/6 190/5/6 192/5/6
