# MagicaVoxel @ Ephtracy

# group
o 

# material
mtllib Rock.mtl
usemtl palette

# normals
vn -1 0 0
vn 1 0 0
vn 0 0 1
vn 0 0 -1
vn 0 -1 0
vn 0 1 0

# texcoords
vt 0.814453 0.5
vt 0.818359 0.5
vt 0.822266 0.5
vt 0.970703 0.5

# verts
v -1.1 0 0.8
v -1.1 0 0.3
v -1.1 0.1 0.8
v -1.1 0.1 0.3
v -1 0 0.9
v -1 0 0.8
v -1 0 0.3
v -1 0 0.2
v -1 0.1 0.9
v -1 0.1 0.8
v -1 0.1 0.3
v -1 0.1 0.2
v -0.9 0 0.2
v -0.9 0 0
v -0.9 0.1 0.2
v -0.9 0.1 0
v -0.8 0 1
v -0.8 0 0.9
v -0.8 0 0
v -0.8 0 -0.1
v -0.8 0.1 1
v -0.8 0.1 0.9
v -0.8 0.1 0
v -0.8 0.1 -0.1
v -0.3 0 1
v -0.3 0 0.9
v -0.3 0.1 1
v -0.3 0.1 0.9
v -0.1 0 0
v -0.1 0 -0.1
v -0.1 0.1 0
v -0.1 0.1 -0.1
v 0 0 0.9
v 0 0 0.8
v 0 0 0.1
v 0 0 0
v 0 0.1 0.9
v 0 0.1 0.8
v 0 0.1 0.1
v 0 0.1 0
v 0.1 0 0.8
v 0.1 0 0.1
v 0.1 0.1 0.8
v 0.1 0.1 0.1
v -0.8 0 1
v -0.8 0.1 1
v -0.3 0 1
v -0.3 0.1 1
v -1 0 0.9
v -1 0.1 0.9
v -0.8 0 0.9
v -0.8 0.1 0.9
v -0.3 0 0.9
v -0.3 0.1 0.9
v 0 0 0.9
v 0 0.1 0.9
v -1.1 0 0.8
v -1.1 0.1 0.8
v -1 0 0.8
v -1 0.1 0.8
v 0 0 0.8
v 0 0.1 0.8
v 0.1 0 0.8
v 0.1 0.1 0.8
v -1.1 0 0.3
v -1.1 0.1 0.3
v -1 0 0.3
v -1 0.1 0.3
v -1 0 0.2
v -1 0.1 0.2
v -0.9 0 0.2
v -0.9 0.1 0.2
v 0 0 0.1
v 0 0.1 0.1
v 0.1 0 0.1
v 0.1 0.1 0.1
v -0.9 0 0
v -0.9 0.1 0
v -0.8 0 0
v -0.8 0.1 0
v -0.1 0 0
v -0.1 0.1 0
v 0 0 0
v 0 0.1 0
v -0.8 0 -0.1
v -0.8 0.1 -0.1
v -0.1 0 -0.1
v -0.1 0.1 -0.1
v -0.8 0 1
v -0.3 0 1
v -1 0 0.9
v -0.8 0 0.9
v -0.7 0 0.9
v -0.4 0 0.9
v -0.3 0 0.9
v 0 0 0.9
v -1.1 0 0.8
v -1 0 0.8
v -0.9 0 0.8
v -0.8 0 0.8
v -0.7 0 0.8
v -0.4 0 0.8
v -0.3 0 0.8
v -0.1 0 0.8
v 0 0 0.8
v 0.1 0 0.8
v -1 0 0.7
v -0.9 0 0.7
v -0.8 0 0.7
v -0.3 0 0.7
v -0.2 0 0.7
v -0.1 0 0.7
v 0 0 0.7
v -0.9 0 0.6
v -0.8 0 0.6
v -0.2 0 0.6
v 0 0 0.6
v -0.7 0 0.5
v -0.5 0 0.5
v -0.3 0 0.5
v -0.1 0 0.5
v -1 0 0.4
v -0.9 0 0.4
v -0.7 0 0.4
v -0.6 0 0.4
v -0.5 0 0.4
v -0.4 0 0.4
v -0.1 0 0.4
v 0 0 0.4
v -1.1 0 0.3
v -1 0 0.3
v -0.9 0 0.3
v -0.8 0 0.3
v -0.6 0 0.3
v -0.5 0 0.3
v -1 0 0.2
v -0.9 0 0.2
v -0.8 0 0.2
v -0.5 0 0.2
v -0.4 0 0.2
v -0.1 0 0.2
v 0 0 0.2
v -0.8 0 0.1
v -0.7 0 0.1
v -0.2 0 0.1
v -0.1 0 0.1
v 0 0 0.1
v 0.1 0 0.1
v -0.9 0 0
v -0.8 0 0
v -0.7 0 0
v -0.2 0 0
v -0.1 0 0
v 0 0 0
v -0.8 0 -0.1
v -0.1 0 -0.1
v -0.8 0.1 1
v -0.3 0.1 1
v -1 0.1 0.9
v -0.8 0.1 0.9
v -0.7 0.1 0.9
v -0.4 0.1 0.9
v -0.3 0.1 0.9
v 0 0.1 0.9
v -1.1 0.1 0.8
v -1 0.1 0.8
v -0.9 0.1 0.8
v -0.8 0.1 0.8
v -0.7 0.1 0.8
v -0.4 0.1 0.8
v -0.3 0.1 0.8
v -0.1 0.1 0.8
v 0 0.1 0.8
v 0.1 0.1 0.8
v -1 0.1 0.7
v -0.9 0.1 0.7
v -0.8 0.1 0.7
v -0.3 0.1 0.7
v -0.2 0.1 0.7
v -0.1 0.1 0.7
v 0 0.1 0.7
v -0.9 0.1 0.6
v -0.8 0.1 0.6
v -0.2 0.1 0.6
v 0 0.1 0.6
v -0.7 0.1 0.5
v -0.5 0.1 0.5
v -0.3 0.1 0.5
v -0.1 0.1 0.5
v -1 0.1 0.4
v -0.9 0.1 0.4
v -0.7 0.1 0.4
v -0.6 0.1 0.4
v -0.5 0.1 0.4
v -0.4 0.1 0.4
v -0.1 0.1 0.4
v 0 0.1 0.4
v -1.1 0.1 0.3
v -1 0.1 0.3
v -0.9 0.1 0.3
v -0.8 0.1 0.3
v -0.6 0.1 0.3
v -0.5 0.1 0.3
v -1 0.1 0.2
v -0.9 0.1 0.2
v -0.8 0.1 0.2
v -0.5 0.1 0.2
v -0.4 0.1 0.2
v -0.1 0.1 0.2
v 0 0.1 0.2
v -0.8 0.1 0.1
v -0.7 0.1 0.1
v -0.2 0.1 0.1
v -0.1 0.1 0.1
v 0 0.1 0.1
v 0.1 0.1 0.1
v -0.9 0.1 0
v -0.8 0.1 0
v -0.7 0.1 0
v -0.2 0.1 0
v -0.1 0.1 0
v 0 0.1 0
v -0.8 0.1 -0.1
v -0.1 0.1 -0.1

# faces
f 3/4/1 2/4/1 1/4/1
f 4/4/1 2/4/1 3/4/1
f 9/4/1 6/4/1 5/4/1
f 10/4/1 6/4/1 9/4/1
f 11/4/1 8/4/1 7/4/1
f 12/4/1 8/4/1 11/4/1
f 15/4/1 14/4/1 13/4/1
f 16/4/1 14/4/1 15/4/1
f 21/4/1 18/4/1 17/4/1
f 22/4/1 18/4/1 21/4/1
f 23/4/1 20/4/1 19/4/1
f 24/4/1 20/4/1 23/4/1
f 25/4/2 26/4/2 27/4/2
f 27/4/2 26/4/2 28/4/2
f 29/4/2 30/4/2 31/4/2
f 31/4/2 30/4/2 32/4/2
f 33/4/2 34/4/2 37/4/2
f 37/4/2 34/4/2 38/4/2
f 35/4/2 36/4/2 39/4/2
f 39/4/2 36/4/2 40/4/2
f 41/4/2 42/4/2 43/4/2
f 43/4/2 42/4/2 44/4/2
f 47/4/3 46/4/3 45/4/3
f 48/4/3 46/4/3 47/4/3
f 51/4/3 50/4/3 49/4/3
f 52/4/3 50/4/3 51/4/3
f 55/4/3 54/4/3 53/4/3
f 56/4/3 54/4/3 55/4/3
f 59/4/3 58/4/3 57/4/3
f 60/4/3 58/4/3 59/4/3
f 63/4/3 62/4/3 61/4/3
f 64/4/3 62/4/3 63/4/3
f 65/4/4 66/4/4 67/4/4
f 67/4/4 66/4/4 68/4/4
f 69/4/4 70/4/4 71/4/4
f 71/4/4 70/4/4 72/4/4
f 73/4/4 74/4/4 75/4/4
f 75/4/4 74/4/4 76/4/4
f 77/4/4 78/4/4 79/4/4
f 79/4/4 78/4/4 80/4/4
f 81/4/4 82/4/4 83/4/4
f 83/4/4 82/4/4 84/4/4
f 85/4/4 86/4/4 87/4/4
f 87/4/4 86/4/4 88/4/4
f 92/4/5 90/4/5 89/4/5
f 93/4/5 90/4/5 92/4/5
f 94/4/5 90/4/5 93/4/5
f 95/4/5 90/4/5 94/4/5
f 98/4/5 92/4/5 91/4/5
f 99/4/5 92/4/5 98/4/5
f 100/1/5 93/1/5 92/1/5
f 100/4/5 92/4/5 99/4/5
f 101/2/5 94/2/5 93/2/5
f 101/1/5 93/1/5 100/1/5
f 102/1/5 95/1/5 94/1/5
f 102/2/5 94/2/5 101/2/5
f 103/4/5 96/4/5 95/4/5
f 103/1/5 95/1/5 102/1/5
f 104/4/5 96/4/5 103/4/5
f 105/4/5 96/4/5 104/4/5
f 107/1/5 99/1/5 98/1/5
f 107/4/5 98/4/5 97/4/5
f 108/2/5 102/2/5 101/2/5
f 108/1/5 99/1/5 107/1/5
f 108/2/5 100/2/5 99/2/5
f 108/2/5 104/2/5 103/2/5
f 108/2/5 103/2/5 102/2/5
f 108/2/5 101/2/5 100/2/5
f 109/2/5 104/2/5 108/2/5
f 110/2/5 104/2/5 109/2/5
f 111/2/5 104/2/5 110/2/5
f 112/1/5 105/1/5 104/1/5
f 112/2/5 104/2/5 111/2/5
f 113/4/5 106/4/5 105/4/5
f 113/1/5 105/1/5 112/1/5
f 114/2/5 108/2/5 107/2/5
f 114/3/5 109/3/5 108/3/5
f 115/2/5 110/2/5 109/2/5
f 115/3/5 109/3/5 114/3/5
f 116/2/5 112/2/5 111/2/5
f 116/3/5 111/3/5 110/3/5
f 116/2/5 113/2/5 112/2/5
f 117/4/5 106/4/5 113/4/5
f 117/2/5 113/2/5 116/2/5
f 118/2/5 110/2/5 115/2/5
f 118/2/5 115/2/5 114/2/5
f 119/2/5 110/2/5 118/2/5
f 120/3/5 117/3/5 116/3/5
f 120/2/5 110/2/5 119/2/5
f 120/3/5 116/3/5 110/3/5
f 121/3/5 117/3/5 120/3/5
f 122/4/5 107/4/5 97/4/5
f 122/2/5 118/2/5 114/2/5
f 122/2/5 114/2/5 107/2/5
f 123/2/5 118/2/5 122/2/5
f 124/3/5 119/3/5 118/3/5
f 124/2/5 118/2/5 123/2/5
f 125/3/5 119/3/5 124/3/5
f 126/2/5 121/2/5 120/2/5
f 126/3/5 119/3/5 125/3/5
f 126/2/5 120/2/5 119/2/5
f 127/2/5 121/2/5 126/2/5
f 128/3/5 117/3/5 121/3/5
f 128/2/5 121/2/5 127/2/5
f 129/4/5 106/4/5 117/4/5
f 129/3/5 117/3/5 128/3/5
f 130/4/5 122/4/5 97/4/5
f 131/1/5 123/1/5 122/1/5
f 131/4/5 122/4/5 130/4/5
f 132/2/5 125/2/5 124/2/5
f 132/1/5 123/1/5 131/1/5
f 132/2/5 124/2/5 123/2/5
f 133/2/5 125/2/5 132/2/5
f 134/3/5 127/3/5 126/3/5
f 134/2/5 125/2/5 133/2/5
f 134/3/5 126/3/5 125/3/5
f 135/3/5 127/3/5 134/3/5
f 136/4/5 132/4/5 131/4/5
f 137/1/5 133/1/5 132/1/5
f 137/4/5 132/4/5 136/4/5
f 138/2/5 135/2/5 134/2/5
f 138/1/5 133/1/5 137/1/5
f 138/2/5 134/2/5 133/2/5
f 139/3/5 127/3/5 135/3/5
f 139/2/5 135/2/5 138/2/5
f 140/2/5 128/2/5 127/2/5
f 140/3/5 127/3/5 139/3/5
f 140/2/5 129/2/5 128/2/5
f 141/2/5 129/2/5 140/2/5
f 142/4/5 106/4/5 129/4/5
f 142/2/5 129/2/5 141/2/5
f 143/2/5 139/2/5 138/2/5
f 143/4/5 138/4/5 137/4/5
f 143/2/5 140/2/5 139/2/5
f 143/2/5 141/2/5 140/2/5
f 144/2/5 141/2/5 143/2/5
f 145/2/5 141/2/5 144/2/5
f 146/1/5 142/1/5 141/1/5
f 146/2/5 141/2/5 145/2/5
f 147/4/5 106/4/5 142/4/5
f 147/1/5 142/1/5 146/1/5
f 148/4/5 106/4/5 147/4/5
f 149/4/5 143/4/5 137/4/5
f 150/1/5 144/1/5 143/1/5
f 150/4/5 143/4/5 149/4/5
f 151/2/5 145/2/5 144/2/5
f 151/1/5 144/1/5 150/1/5
f 152/1/5 146/1/5 145/1/5
f 152/2/5 145/2/5 151/2/5
f 153/4/5 147/4/5 146/4/5
f 153/1/5 146/1/5 152/1/5
f 154/4/5 147/4/5 153/4/5
f 155/4/5 151/4/5 150/4/5
f 155/4/5 153/4/5 152/4/5
f 155/4/5 152/4/5 151/4/5
f 156/4/5 153/4/5 155/4/5
f 157/4/6 158/4/6 160/4/6
f 160/4/6 158/4/6 161/4/6
f 161/4/6 158/4/6 162/4/6
f 162/4/6 158/4/6 163/4/6
f 159/4/6 160/4/6 166/4/6
f 166/4/6 160/4/6 167/4/6
f 160/1/6 161/1/6 168/1/6
f 167/4/6 160/4/6 168/4/6
f 161/2/6 162/2/6 169/2/6
f 168/1/6 161/1/6 169/1/6
f 162/1/6 163/1/6 170/1/6
f 169/2/6 162/2/6 170/2/6
f 163/4/6 164/4/6 171/4/6
f 170/1/6 163/1/6 171/1/6
f 171/4/6 164/4/6 172/4/6
f 172/4/6 164/4/6 173/4/6
f 166/1/6 167/1/6 175/1/6
f 165/4/6 166/4/6 175/4/6
f 169/2/6 170/2/6 176/2/6
f 175/1/6 167/1/6 176/1/6
f 167/2/6 168/2/6 176/2/6
f 171/2/6 172/2/6 176/2/6
f 170/2/6 171/2/6 176/2/6
f 168/2/6 169/2/6 176/2/6
f 176/2/6 172/2/6 177/2/6
f 177/2/6 172/2/6 178/2/6
f 178/2/6 172/2/6 179/2/6
f 172/1/6 173/1/6 180/1/6
f 179/2/6 172/2/6 180/2/6
f 173/4/6 174/4/6 181/4/6
f 180/1/6 173/1/6 181/1/6
f 175/2/6 176/2/6 182/2/6
f 176/3/6 177/3/6 182/3/6
f 177/2/6 178/2/6 183/2/6
f 182/3/6 177/3/6 183/3/6
f 179/2/6 180/2/6 184/2/6
f 178/3/6 179/3/6 184/3/6
f 180/2/6 181/2/6 184/2/6
f 181/4/6 174/4/6 185/4/6
f 184/2/6 181/2/6 185/2/6
f 183/2/6 178/2/6 186/2/6
f 182/2/6 183/2/6 186/2/6
f 186/2/6 178/2/6 187/2/6
f 184/3/6 185/3/6 188/3/6
f 187/2/6 178/2/6 188/2/6
f 178/3/6 184/3/6 188/3/6
f 188/3/6 185/3/6 189/3/6
f 165/4/6 175/4/6 190/4/6
f 182/2/6 186/2/6 190/2/6
f 175/2/6 182/2/6 190/2/6
f 190/2/6 186/2/6 191/2/6
f 186/3/6 187/3/6 192/3/6
f 191/2/6 186/2/6 192/2/6
f 192/3/6 187/3/6 193/3/6
f 188/2/6 189/2/6 194/2/6
f 193/3/6 187/3/6 194/3/6
f 187/2/6 188/2/6 194/2/6
f 194/2/6 189/2/6 195/2/6
f 189/3/6 185/3/6 196/3/6
f 195/2/6 189/2/6 196/2/6
f 185/4/6 174/4/6 197/4/6
f 196/3/6 185/3/6 197/3/6
f 165/4/6 190/4/6 198/4/6
f 190/1/6 191/1/6 199/1/6
f 198/4/6 190/4/6 199/4/6
f 192/2/6 193/2/6 200/2/6
f 199/1/6 191/1/6 200/1/6
f 191/2/6 192/2/6 200/2/6
f 200/2/6 193/2/6 201/2/6
f 194/3/6 195/3/6 202/3/6
f 201/2/6 193/2/6 202/2/6
f 193/3/6 194/3/6 202/3/6
f 202/3/6 195/3/6 203/3/6
f 199/4/6 200/4/6 204/4/6
f 200/1/6 201/1/6 205/1/6
f 204/4/6 200/4/6 205/4/6
f 202/2/6 203/2/6 206/2/6
f 205/1/6 201/1/6 206/1/6
f 201/2/6 202/2/6 206/2/6
f 203/3/6 195/3/6 207/3/6
f 206/2/6 203/2/6 207/2/6
f 195/2/6 196/2/6 208/2/6
f 207/3/6 195/3/6 208/3/6
f 196/2/6 197/2/6 208/2/6
f 208/2/6 197/2/6 209/2/6
f 197/4/6 174/4/6 210/4/6
f 209/2/6 197/2/6 210/2/6
f 206/2/6 207/2/6 211/2/6
f 205/4/6 206/4/6 211/4/6
f 207/2/6 208/2/6 211/2/6
f 208/2/6 209/2/6 211/2/6
f 211/2/6 209/2/6 212/2/6
f 212/2/6 209/2/6 213/2/6
f 209/1/6 210/1/6 214/1/6
f 213/2/6 209/2/6 214/2/6
f 210/4/6 174/4/6 215/4/6
f 214/1/6 210/1/6 215/1/6
f 215/4/6 174/4/6 216/4/6
f 205/4/6 211/4/6 217/4/6
f 211/1/6 212/1/6 218/1/6
f 217/4/6 211/4/6 218/4/6
f 212/2/6 213/2/6 219/2/6
f 218/1/6 212/1/6 219/1/6
f 213/1/6 214/1/6 220/1/6
f 219/2/6 213/2/6 220/2/6
f 214/4/6 215/4/6 221/4/6
f 220/1/6 214/1/6 221/1/6
f 221/4/6 215/4/6 222/4/6
f 218/4/6 219/4/6 223/4/6
f 220/4/6 221/4/6 223/4/6
f 219/4/6 220/4/6 223/4/6
f 223/4/6 221/4/6 224/4/6
