# MagicaVoxel @ Ephtracy

# group
o 

# material
mtllib Mini_Fire.mtl
usemtl palette

# normals
vn -1 0 0
vn 1 0 0
vn 0 0 1
vn 0 0 -1
vn 0 -1 0
vn 0 1 0

# texcoords
vt 0.908203 0.5
vt 0.912109 0.5
vt 0.916016 0.5
vt 0.919922 0.5
vt 0.970703 0.5

# verts
v -0.7 0 0.8
v -0.7 0 0.4
v -0.7 0.1 0.8
v -0.7 0.1 0.4
v -0.6 0 0.9
v -0.6 0 0.8
v -0.6 0 0.4
v -0.6 0 0.3
v -0.6 0.1 0.9
v -0.6 0.1 0.8
v -0.6 0.1 0.4
v -0.6 0.1 0.3
v -0.5 0 1
v -0.5 0 0.9
v -0.5 0 0.3
v -0.5 0 0.2
v -0.5 0.1 1
v -0.5 0.1 0.9
v -0.5 0.1 0.3
v -0.5 0.1 0.2
v -0.4 0 1
v -0.4 0 0.9
v -0.4 0 0.3
v -0.4 0 0.2
v -0.4 0.1 1
v -0.4 0.1 0.9
v -0.4 0.1 0.3
v -0.4 0.1 0.2
v -0.3 0 0.9
v -0.3 0 0.8
v -0.3 0 0.6
v -0.3 0 0.3
v -0.3 0.1 0.9
v -0.3 0.1 0.8
v -0.3 0.1 0.6
v -0.3 0.1 0.3
v -0.2 0 0.8
v -0.2 0 0.6
v -0.2 0.1 0.8
v -0.2 0.1 0.6
v -0.5 0 1
v -0.5 0.1 1
v -0.4 0 1
v -0.4 0.1 1
v -0.6 0 0.9
v -0.6 0.1 0.9
v -0.5 0 0.9
v -0.5 0.1 0.9
v -0.4 0 0.9
v -0.4 0.1 0.9
v -0.3 0 0.9
v -0.3 0.1 0.9
v -0.7 0 0.8
v -0.7 0.1 0.8
v -0.6 0 0.8
v -0.6 0.1 0.8
v -0.3 0 0.8
v -0.3 0.1 0.8
v -0.2 0 0.8
v -0.2 0.1 0.8
v -0.3 0 0.6
v -0.3 0.1 0.6
v -0.2 0 0.6
v -0.2 0.1 0.6
v -0.7 0 0.4
v -0.7 0.1 0.4
v -0.6 0 0.4
v -0.6 0.1 0.4
v -0.6 0 0.3
v -0.6 0.1 0.3
v -0.5 0 0.3
v -0.5 0.1 0.3
v -0.4 0 0.3
v -0.4 0.1 0.3
v -0.3 0 0.3
v -0.3 0.1 0.3
v -0.5 0 0.2
v -0.5 0.1 0.2
v -0.4 0 0.2
v -0.4 0.1 0.2
v -0.5 0 1
v -0.4 0 1
v -0.6 0 0.9
v -0.5 0 0.9
v -0.4 0 0.9
v -0.3 0 0.9
v -0.7 0 0.8
v -0.6 0 0.8
v -0.5 0 0.8
v -0.4 0 0.8
v -0.3 0 0.8
v -0.2 0 0.8
v -0.5 0 0.7
v -0.4 0 0.7
v -0.3 0 0.7
v -0.6 0 0.6
v -0.5 0 0.6
v -0.4 0 0.6
v -0.3 0 0.6
v -0.2 0 0.6
v -0.6 0 0.5
v -0.5 0 0.5
v -0.4 0 0.5
v -0.7 0 0.4
v -0.6 0 0.4
v -0.5 0 0.4
v -0.4 0 0.4
v -0.6 0 0.3
v -0.5 0 0.3
v -0.4 0 0.3
v -0.3 0 0.3
v -0.5 0 0.2
v -0.4 0 0.2
v -0.5 0.1 1
v -0.4 0.1 1
v -0.6 0.1 0.9
v -0.5 0.1 0.9
v -0.4 0.1 0.9
v -0.3 0.1 0.9
v -0.7 0.1 0.8
v -0.6 0.1 0.8
v -0.5 0.1 0.8
v -0.4 0.1 0.8
v -0.3 0.1 0.8
v -0.2 0.1 0.8
v -0.5 0.1 0.7
v -0.4 0.1 0.7
v -0.3 0.1 0.7
v -0.6 0.1 0.6
v -0.5 0.1 0.6
v -0.4 0.1 0.6
v -0.3 0.1 0.6
v -0.2 0.1 0.6
v -0.6 0.1 0.5
v -0.5 0.1 0.5
v -0.4 0.1 0.5
v -0.7 0.1 0.4
v -0.6 0.1 0.4
v -0.5 0.1 0.4
v -0.4 0.1 0.4
v -0.6 0.1 0.3
v -0.5 0.1 0.3
v -0.4 0.1 0.3
v -0.3 0.1 0.3
v -0.5 0.1 0.2
v -0.4 0.1 0.2

# faces
f 3/5/1 2/5/1 1/5/1
f 4/5/1 2/5/1 3/5/1
f 9/2/1 6/2/1 5/2/1
f 10/2/1 6/2/1 9/2/1
f 11/5/1 8/5/1 7/5/1
f 12/5/1 8/5/1 11/5/1
f 17/5/1 14/5/1 13/5/1
f 18/5/1 14/5/1 17/5/1
f 19/5/1 16/5/1 15/5/1
f 20/5/1 16/5/1 19/5/1
f 21/5/2 22/5/2 25/5/2
f 25/5/2 22/5/2 26/5/2
f 23/5/2 24/5/2 27/5/2
f 27/5/2 24/5/2 28/5/2
f 29/2/2 30/2/2 33/2/2
f 33/2/2 30/2/2 34/2/2
f 31/5/2 32/5/2 35/5/2
f 35/5/2 32/5/2 36/5/2
f 37/5/2 38/5/2 39/5/2
f 39/5/2 38/5/2 40/5/2
f 43/5/3 42/5/3 41/5/3
f 44/5/3 42/5/3 43/5/3
f 47/2/3 46/2/3 45/2/3
f 48/2/3 46/2/3 47/2/3
f 51/2/3 50/2/3 49/2/3
f 52/2/3 50/2/3 51/2/3
f 55/5/3 54/5/3 53/5/3
f 56/5/3 54/5/3 55/5/3
f 59/5/3 58/5/3 57/5/3
f 60/5/3 58/5/3 59/5/3
f 61/5/4 62/5/4 63/5/4
f 63/5/4 62/5/4 64/5/4
f 65/5/4 66/5/4 67/5/4
f 67/5/4 66/5/4 68/5/4
f 69/5/4 70/5/4 71/5/4
f 71/5/4 70/5/4 72/5/4
f 73/5/4 74/5/4 75/5/4
f 75/5/4 74/5/4 76/5/4
f 77/5/4 78/5/4 79/5/4
f 79/5/4 78/5/4 80/5/4
f 84/5/5 82/5/5 81/5/5
f 85/5/5 82/5/5 84/5/5
f 88/2/5 84/2/5 83/2/5
f 89/3/5 85/3/5 84/3/5
f 89/2/5 84/2/5 88/2/5
f 90/2/5 86/2/5 85/2/5
f 90/3/5 85/3/5 89/3/5
f 91/2/5 86/2/5 90/2/5
f 93/3/5 89/3/5 88/3/5
f 93/4/5 90/4/5 89/4/5
f 94/3/5 91/3/5 90/3/5
f 94/4/5 90/4/5 93/4/5
f 95/5/5 92/5/5 91/5/5
f 95/3/5 91/3/5 94/3/5
f 96/3/5 94/3/5 93/3/5
f 96/5/5 88/5/5 87/5/5
f 96/3/5 93/3/5 88/3/5
f 97/3/5 94/3/5 96/3/5
f 98/2/5 95/2/5 94/2/5
f 98/3/5 94/3/5 97/3/5
f 99/5/5 92/5/5 95/5/5
f 99/2/5 95/2/5 98/2/5
f 100/5/5 92/5/5 99/5/5
f 101/2/5 97/2/5 96/2/5
f 101/5/5 96/5/5 87/5/5
f 102/3/5 98/3/5 97/3/5
f 102/2/5 97/2/5 101/2/5
f 103/5/5 99/5/5 98/5/5
f 103/3/5 98/3/5 102/3/5
f 104/5/5 101/5/5 87/5/5
f 105/1/5 102/1/5 101/1/5
f 105/5/5 101/5/5 104/5/5
f 106/2/5 103/2/5 102/2/5
f 106/1/5 102/1/5 105/1/5
f 107/5/5 99/5/5 103/5/5
f 107/2/5 103/2/5 106/2/5
f 108/5/5 106/5/5 105/5/5
f 109/1/5 107/1/5 106/1/5
f 109/5/5 106/5/5 108/5/5
f 110/5/5 99/5/5 107/5/5
f 110/1/5 107/1/5 109/1/5
f 111/5/5 99/5/5 110/5/5
f 112/5/5 110/5/5 109/5/5
f 113/5/5 110/5/5 112/5/5
f 114/5/6 115/5/6 117/5/6
f 117/5/6 115/5/6 118/5/6
f 116/2/6 117/2/6 121/2/6
f 117/3/6 118/3/6 122/3/6
f 121/2/6 117/2/6 122/2/6
f 118/2/6 119/2/6 123/2/6
f 122/3/6 118/3/6 123/3/6
f 123/2/6 119/2/6 124/2/6
f 121/3/6 122/3/6 126/3/6
f 122/4/6 123/4/6 126/4/6
f 123/3/6 124/3/6 127/3/6
f 126/4/6 123/4/6 127/4/6
f 124/5/6 125/5/6 128/5/6
f 127/3/6 124/3/6 128/3/6
f 126/3/6 127/3/6 129/3/6
f 120/5/6 121/5/6 129/5/6
f 121/3/6 126/3/6 129/3/6
f 129/3/6 127/3/6 130/3/6
f 127/2/6 128/2/6 131/2/6
f 130/3/6 127/3/6 131/3/6
f 128/5/6 125/5/6 132/5/6
f 131/2/6 128/2/6 132/2/6
f 132/5/6 125/5/6 133/5/6
f 129/2/6 130/2/6 134/2/6
f 120/5/6 129/5/6 134/5/6
f 130/3/6 131/3/6 135/3/6
f 134/2/6 130/2/6 135/2/6
f 131/5/6 132/5/6 136/5/6
f 135/3/6 131/3/6 136/3/6
f 120/5/6 134/5/6 137/5/6
f 134/1/6 135/1/6 138/1/6
f 137/5/6 134/5/6 138/5/6
f 135/2/6 136/2/6 139/2/6
f 138/1/6 135/1/6 139/1/6
f 136/5/6 132/5/6 140/5/6
f 139/2/6 136/2/6 140/2/6
f 138/5/6 139/5/6 141/5/6
f 139/1/6 140/1/6 142/1/6
f 141/5/6 139/5/6 142/5/6
f 140/5/6 132/5/6 143/5/6
f 142/1/6 140/1/6 143/1/6
f 143/5/6 132/5/6 144/5/6
f 142/5/6 143/5/6 145/5/6
f 145/5/6 143/5/6 146/5/6
