# MagicaVoxel @ Ephtracy

# group
o 

# material
mtllib Life(1-8).mtl
usemtl palette

# normals
vn -1 0 0
vn 1 0 0
vn 0 0 1
vn 0 0 -1
vn 0 -1 0
vn 0 1 0

# texcoords
vt 0.818359 0.5
vt 0.822266 0.5
vt 0.908203 0.5
vt 0.970703 0.5

# verts
v -0.7 0 0.1
v -0.7 0 -0.1
v -0.7 0.1 0.1
v -0.7 0.1 -0.1
v -0.6 0 0.2
v -0.6 0 0.1
v -0.6 0 -0.1
v -0.6 0 -0.2
v -0.6 0.1 0.2
v -0.6 0.1 0.1
v -0.6 0.1 -0.1
v -0.6 0.1 -0.2
v 0.6 0 0.2
v 0.6 0 0.1
v 0.6 0 -0.1
v 0.6 0 -0.2
v 0.6 0.1 0.2
v 0.6 0.1 0.1
v 0.6 0.1 -0.1
v 0.6 0.1 -0.2
v 0.7 0 0.1
v 0.7 0 -0.1
v 0.7 0.1 0.1
v 0.7 0.1 -0.1
v -0.6 0 0.2
v -0.6 0.1 0.2
v 0.6 0 0.2
v 0.6 0.1 0.2
v -0.7 0 0.1
v -0.7 0.1 0.1
v -0.6 0 0.1
v -0.6 0.1 0.1
v 0.6 0 0.1
v 0.6 0.1 0.1
v 0.7 0 0.1
v 0.7 0.1 0.1
v -0.7 0 -0.1
v -0.7 0.1 -0.1
v -0.6 0 -0.1
v -0.6 0.1 -0.1
v 0.6 0 -0.1
v 0.6 0.1 -0.1
v 0.7 0 -0.1
v 0.7 0.1 -0.1
v -0.6 0 -0.2
v -0.6 0.1 -0.2
v 0.6 0 -0.2
v 0.6 0.1 -0.2
v -0.6 0 0.2
v 0.6 0 0.2
v -0.7 0 0.1
v -0.6 0 0.1
v -0.5 0 0.1
v -0.4 0 0.1
v -0.3 0 0.1
v -0.2 0 0.1
v -0.1 0 0.1
v 0 0 0.1
v 0.1 0 0.1
v 0.2 0 0.1
v 0.3 0 0.1
v 0.4 0 0.1
v 0.5 0 0.1
v 0.6 0 0.1
v 0.7 0 0.1
v -0.6 0 0
v -0.5 0 0
v -0.4 0 0
v -0.3 0 0
v -0.2 0 0
v -0.1 0 0
v 0 0 0
v 0.1 0 0
v 0.2 0 0
v 0.3 0 0
v 0.4 0 0
v 0.5 0 0
v 0.6 0 0
v -0.7 0 -0.1
v -0.6 0 -0.1
v -0.5 0 -0.1
v -0.4 0 -0.1
v -0.3 0 -0.1
v -0.2 0 -0.1
v -0.1 0 -0.1
v 0 0 -0.1
v 0.1 0 -0.1
v 0.2 0 -0.1
v 0.3 0 -0.1
v 0.4 0 -0.1
v 0.5 0 -0.1
v 0.6 0 -0.1
v 0.7 0 -0.1
v -0.6 0 -0.2
v 0.6 0 -0.2
v -0.6 0.1 0.2
v 0.6 0.1 0.2
v -0.7 0.1 0.1
v -0.6 0.1 0.1
v -0.5 0.1 0.1
v -0.4 0.1 0.1
v -0.3 0.1 0.1
v -0.2 0.1 0.1
v -0.1 0.1 0.1
v 0 0.1 0.1
v 0.1 0.1 0.1
v 0.2 0.1 0.1
v 0.3 0.1 0.1
v 0.4 0.1 0.1
v 0.5 0.1 0.1
v 0.6 0.1 0.1
v 0.7 0.1 0.1
v -0.6 0.1 0
v -0.5 0.1 0
v -0.4 0.1 0
v -0.3 0.1 0
v -0.2 0.1 0
v -0.1 0.1 0
v 0 0.1 0
v 0.1 0.1 0
v 0.2 0.1 0
v 0.3 0.1 0
v 0.4 0.1 0
v 0.5 0.1 0
v 0.6 0.1 0
v -0.7 0.1 -0.1
v -0.6 0.1 -0.1
v -0.5 0.1 -0.1
v -0.4 0.1 -0.1
v -0.3 0.1 -0.1
v -0.2 0.1 -0.1
v -0.1 0.1 -0.1
v 0 0.1 -0.1
v 0.1 0.1 -0.1
v 0.2 0.1 -0.1
v 0.3 0.1 -0.1
v 0.4 0.1 -0.1
v 0.5 0.1 -0.1
v 0.6 0.1 -0.1
v 0.7 0.1 -0.1
v -0.6 0.1 -0.2
v 0.6 0.1 -0.2

# faces
f 3/4/1 2/4/1 1/4/1
f 4/4/1 2/4/1 3/4/1
f 9/4/1 6/4/1 5/4/1
f 10/4/1 6/4/1 9/4/1
f 11/4/1 8/4/1 7/4/1
f 12/4/1 8/4/1 11/4/1
f 13/4/2 14/4/2 17/4/2
f 17/4/2 14/4/2 18/4/2
f 15/4/2 16/4/2 19/4/2
f 19/4/2 16/4/2 20/4/2
f 21/4/2 22/4/2 23/4/2
f 23/4/2 22/4/2 24/4/2
f 27/4/3 26/4/3 25/4/3
f 28/4/3 26/4/3 27/4/3
f 31/4/3 30/4/3 29/4/3
f 32/4/3 30/4/3 31/4/3
f 35/4/3 34/4/3 33/4/3
f 36/4/3 34/4/3 35/4/3
f 37/4/4 38/4/4 39/4/4
f 39/4/4 38/4/4 40/4/4
f 41/4/4 42/4/4 43/4/4
f 43/4/4 42/4/4 44/4/4
f 45/4/4 46/4/4 47/4/4
f 47/4/4 46/4/4 48/4/4
f 52/4/5 50/4/5 49/4/5
f 53/4/5 50/4/5 52/4/5
f 54/4/5 50/4/5 53/4/5
f 55/4/5 50/4/5 54/4/5
f 56/4/5 50/4/5 55/4/5
f 57/4/5 50/4/5 56/4/5
f 58/4/5 50/4/5 57/4/5
f 59/4/5 50/4/5 58/4/5
f 60/4/5 50/4/5 59/4/5
f 61/4/5 50/4/5 60/4/5
f 62/4/5 50/4/5 61/4/5
f 63/4/5 50/4/5 62/4/5
f 64/4/5 50/4/5 63/4/5
f 66/4/5 52/4/5 51/4/5
f 66/3/5 53/3/5 52/3/5
f 67/2/5 54/2/5 53/2/5
f 67/3/5 53/3/5 66/3/5
f 68/4/5 55/4/5 54/4/5
f 68/2/5 54/2/5 67/2/5
f 69/1/5 56/1/5 55/1/5
f 69/4/5 55/4/5 68/4/5
f 70/2/5 57/2/5 56/2/5
f 70/1/5 56/1/5 69/1/5
f 71/4/5 58/4/5 57/4/5
f 71/2/5 57/2/5 70/2/5
f 72/1/5 59/1/5 58/1/5
f 72/4/5 58/4/5 71/4/5
f 73/2/5 60/2/5 59/2/5
f 73/1/5 59/1/5 72/1/5
f 74/4/5 61/4/5 60/4/5
f 74/2/5 60/2/5 73/2/5
f 75/1/5 62/1/5 61/1/5
f 75/4/5 61/4/5 74/4/5
f 76/2/5 63/2/5 62/2/5
f 76/1/5 62/1/5 75/1/5
f 77/4/5 65/4/5 64/4/5
f 77/2/5 63/2/5 76/2/5
f 77/4/5 64/4/5 63/4/5
f 78/4/5 65/4/5 77/4/5
f 79/4/5 66/4/5 51/4/5
f 79/4/5 67/4/5 66/4/5
f 80/4/5 67/4/5 79/4/5
f 81/3/5 68/3/5 67/3/5
f 81/4/5 67/4/5 80/4/5
f 82/2/5 69/2/5 68/2/5
f 82/3/5 68/3/5 81/3/5
f 83/4/5 70/4/5 69/4/5
f 83/2/5 69/2/5 82/2/5
f 84/1/5 71/1/5 70/1/5
f 84/4/5 70/4/5 83/4/5
f 85/2/5 72/2/5 71/2/5
f 85/1/5 71/1/5 84/1/5
f 86/4/5 73/4/5 72/4/5
f 86/2/5 72/2/5 85/2/5
f 87/1/5 74/1/5 73/1/5
f 87/4/5 73/4/5 86/4/5
f 88/2/5 75/2/5 74/2/5
f 88/1/5 74/1/5 87/1/5
f 89/4/5 76/4/5 75/4/5
f 89/2/5 75/2/5 88/2/5
f 90/1/5 77/1/5 76/1/5
f 90/4/5 76/4/5 89/4/5
f 91/2/5 78/2/5 77/2/5
f 91/1/5 77/1/5 90/1/5
f 92/4/5 65/4/5 78/4/5
f 92/2/5 78/2/5 91/2/5
f 93/4/5 65/4/5 92/4/5
f 94/4/5 88/4/5 87/4/5
f 94/4/5 87/4/5 86/4/5
f 94/4/5 92/4/5 91/4/5
f 94/4/5 91/4/5 90/4/5
f 94/4/5 89/4/5 88/4/5
f 94/4/5 86/4/5 85/4/5
f 94/4/5 85/4/5 84/4/5
f 94/4/5 84/4/5 83/4/5
f 94/4/5 83/4/5 82/4/5
f 94/4/5 82/4/5 81/4/5
f 94/4/5 81/4/5 80/4/5
f 94/4/5 90/4/5 89/4/5
f 95/4/5 92/4/5 94/4/5
f 96/4/6 97/4/6 99/4/6
f 99/4/6 97/4/6 100/4/6
f 100/4/6 97/4/6 101/4/6
f 101/4/6 97/4/6 102/4/6
f 102/4/6 97/4/6 103/4/6
f 103/4/6 97/4/6 104/4/6
f 104/4/6 97/4/6 105/4/6
f 105/4/6 97/4/6 106/4/6
f 106/4/6 97/4/6 107/4/6
f 107/4/6 97/4/6 108/4/6
f 108/4/6 97/4/6 109/4/6
f 109/4/6 97/4/6 110/4/6
f 110/4/6 97/4/6 111/4/6
f 98/4/6 99/4/6 113/4/6
f 99/3/6 100/3/6 113/3/6
f 100/2/6 101/2/6 114/2/6
f 113/3/6 100/3/6 114/3/6
f 101/4/6 102/4/6 115/4/6
f 114/2/6 101/2/6 115/2/6
f 102/1/6 103/1/6 116/1/6
f 115/4/6 102/4/6 116/4/6
f 103/2/6 104/2/6 117/2/6
f 116/1/6 103/1/6 117/1/6
f 104/4/6 105/4/6 118/4/6
f 117/2/6 104/2/6 118/2/6
f 105/1/6 106/1/6 119/1/6
f 118/4/6 105/4/6 119/4/6
f 106/2/6 107/2/6 120/2/6
f 119/1/6 106/1/6 120/1/6
f 107/4/6 108/4/6 121/4/6
f 120/2/6 107/2/6 121/2/6
f 108/1/6 109/1/6 122/1/6
f 121/4/6 108/4/6 122/4/6
f 109/2/6 110/2/6 123/2/6
f 122/1/6 109/1/6 123/1/6
f 111/4/6 112/4/6 124/4/6
f 123/2/6 110/2/6 124/2/6
f 110/4/6 111/4/6 124/4/6
f 124/4/6 112/4/6 125/4/6
f 98/4/6 113/4/6 126/4/6
f 113/4/6 114/4/6 126/4/6
f 126/4/6 114/4/6 127/4/6
f 114/3/6 115/3/6 128/3/6
f 127/4/6 114/4/6 128/4/6
f 115/2/6 116/2/6 129/2/6
f 128/3/6 115/3/6 129/3/6
f 116/4/6 117/4/6 130/4/6
f 129/2/6 116/2/6 130/2/6
f 117/1/6 118/1/6 131/1/6
f 130/4/6 117/4/6 131/4/6
f 118/2/6 119/2/6 132/2/6
f 131/1/6 118/1/6 132/1/6
f 119/4/6 120/4/6 133/4/6
f 132/2/6 119/2/6 133/2/6
f 120/1/6 121/1/6 134/1/6
f 133/4/6 120/4/6 134/4/6
f 121/2/6 122/2/6 135/2/6
f 134/1/6 121/1/6 135/1/6
f 122/4/6 123/4/6 136/4/6
f 135/2/6 122/2/6 136/2/6
f 123/1/6 124/1/6 137/1/6
f 136/4/6 123/4/6 137/4/6
f 124/2/6 125/2/6 138/2/6
f 137/1/6 124/1/6 138/1/6
f 125/4/6 112/4/6 139/4/6
f 138/2/6 125/2/6 139/2/6
f 139/4/6 112/4/6 140/4/6
f 134/4/6 135/4/6 141/4/6
f 133/4/6 134/4/6 141/4/6
f 138/4/6 139/4/6 141/4/6
f 137/4/6 138/4/6 141/4/6
f 135/4/6 136/4/6 141/4/6
f 132/4/6 133/4/6 141/4/6
f 131/4/6 132/4/6 141/4/6
f 130/4/6 131/4/6 141/4/6
f 129/4/6 130/4/6 141/4/6
f 128/4/6 129/4/6 141/4/6
f 127/4/6 128/4/6 141/4/6
f 136/4/6 137/4/6 141/4/6
f 141/4/6 139/4/6 142/4/6
